HIERARCHY
ROOT Hips
{
 OFFSET 0.000000 0.000000 0.000000
 CHANNELS 6 Xposition Yposition Zposition Yrotation Xrotation Zrotation
 JOINT Chest
 {
  OFFSET 0.000000 9.588913 -0.003946
  CHANNELS 3 Yrotation Xrotation Zrotation
  JOINT Chest2
  {
   OFFSET 0.000000 9.541882 0.008053
   CHANNELS 3 Yrotation Xrotation Zrotation
   JOINT Chest3
   {
    OFFSET 0.000000 9.501360 0.000000
    CHANNELS 3 Yrotation Xrotation Zrotation
    JOINT Chest4
    {
     OFFSET 0.000000 9.491660 0.000000
     CHANNELS 3 Yrotation Xrotation Zrotation
     JOINT Neck
     {
      OFFSET 0.000000 14.331917 0.000000
      CHANNELS 3 Yrotation Xrotation Zrotation
      JOINT Head
      {
       OFFSET 0.000000 8.884799 0.017034
       CHANNELS 3 Yrotation Xrotation Zrotation
       End Site
       {
        OFFSET 0.000000 16.896195 0.008993
       }
      }
     }
     JOINT RightCollar
     {
      OFFSET -2.923010 9.499495 0.000000
      CHANNELS 3 Yrotation Xrotation Zrotation
      JOINT RightShoulder
      {
       OFFSET -13.795216 0.000000 0.000000
       CHANNELS 3 Yrotation Xrotation Zrotation
       JOINT RightElbow
       {
        OFFSET -30.272209 0.000000 0.000000
        CHANNELS 3 Yrotation Xrotation Zrotation
        JOINT RightWrist
        {
         OFFSET -24.478199 0.000000 0.000000
         CHANNELS 3 Yrotation Xrotation Zrotation
         End Site
         {
          OFFSET -18.090752 0.000000 0.000000
         }
        }
       }
      }
     }
     JOINT LeftCollar
     {
      OFFSET 2.923010 9.499495 0.000000
      CHANNELS 3 Yrotation Xrotation Zrotation
      JOINT LeftShoulder
      {
       OFFSET 13.795216 0.000000 0.000000
       CHANNELS 3 Yrotation Xrotation Zrotation
       JOINT LeftElbow
       {
        OFFSET 30.272209 0.000000 0.000000
        CHANNELS 3 Yrotation Xrotation Zrotation
        JOINT LeftWrist
        {
         OFFSET 24.478199 0.000000 0.000000
         CHANNELS 3 Yrotation Xrotation Zrotation
         End Site
         {
          OFFSET 18.090752 0.000000 0.000000
         }
        }
       }
      }
     }
    }
   }
  }
 }
 JOINT RightHip
 {
  OFFSET -7.826875 0.019532 0.001973
  CHANNELS 3 Yrotation Xrotation Zrotation
  JOINT RightKnee
  {
   OFFSET 0.000000 -40.546152 -0.001885
   CHANNELS 3 Yrotation Xrotation Zrotation
   JOINT RightAnkle
   {
    OFFSET 0.000000 -39.417092 -0.003189
    CHANNELS 3 Yrotation Xrotation Zrotation
    JOINT RightToe
    {
     OFFSET 0.000000 -7.579396 17.243563
     CHANNELS 3 Yrotation Xrotation Zrotation
     End Site
     {
      OFFSET 0.000000 -1.500329 6.694466
     }
    }
   }
  }
 }
 JOINT LeftHip
 {
  OFFSET 7.826875 0.019532 0.001973
  CHANNELS 3 Yrotation Xrotation Zrotation
  JOINT LeftKnee
  {
   OFFSET 0.000000 -40.546152 -0.001885
   CHANNELS 3 Yrotation Xrotation Zrotation
   JOINT LeftAnkle
   {
    OFFSET 0.000000 -39.417092 -0.003189
    CHANNELS 3 Yrotation Xrotation Zrotation
    JOINT LeftToe
    {
     OFFSET 0.000000 -7.579396 17.243563
     CHANNELS 3 Yrotation Xrotation Zrotation
     End Site
     {
      OFFSET 0.000000 -1.500329 6.694466
     }
    }
   }
  }
 }
}
MOTION
Frames: 7
Frame Time: 0.008333
-107.818406 89.159016 33.206874 32.309007 -8.211548 -0.600379 -3.185323 2.622507 -0.729459 -1.821116 1.500918 -0.418340 -2.278299 1.874007 -0.530411 -1.821116 1.500918 -0.418340 -2.133078 19.498857 -1.831331 -3.332890 0.401284 -2.689041 8.043843 0.977024 -1.250497 3.273936 -0.443326 89.822002 3.966422 3.742769 1.230462 -2.199746 -1.948344 -0.617025 8.227971 0.839119 0.258030 8.967036 2.239349 -88.982395 -5.465027 10.214353 -1.286709 1.733171 -0.523623 -1.526367 -6.929238 10.011249 1.785034 -4.140437 1.524384 -0.396920 -29.867211 -3.696110 1.503369 -0.003815 0.023656 -0.032555 -14.715835 11.467557 -4.864594 -18.110485 3.289820 0.414485 -24.244636 -3.115211 4.609175 -0.001835 0.002257 -0.009051
-107.811390 89.159344 33.190619 32.327587 -8.198085 -0.608153 -3.193874 2.622878 -0.726862 -1.825794 1.501288 -0.417745 -2.284145 1.874467 -0.529688 -1.825794 1.501288 -0.417745 -2.118045 19.518248 -1.831806 -3.305434 0.437335 -2.694795 8.045024 0.987053 -1.245282 3.256553 -0.466953 89.814647 3.991981 3.732927 1.224662 -2.201729 -1.953204 -0.613868 8.235589 0.844322 0.248287 8.975533 2.228053 -88.974220 -5.466890 10.212522 -1.279522 1.732944 -0.524607 -1.523505 -6.938598 9.978118 1.779303 -4.153638 1.551870 -0.394026 -29.874736 -3.696654 1.525497 -0.004651 0.024109 -0.034521 -14.710363 11.451248 -4.856926 -18.115870 3.288743 0.405598 -24.245194 -3.109406 4.620607 -0.000376 0.003192 -0.010765
-107.804639 89.159824 33.174391 32.341649 -8.186931 -0.616479 -3.202244 2.624501 -0.724933 -1.830754 1.502088 -0.416851 -2.290343 1.875466 -0.528594 -1.830754 1.502088 -0.416851 -2.101598 19.537561 -1.832455 -3.275346 0.473250 -2.701294 8.049271 0.997453 -1.239628 3.237821 -0.491663 89.807917 4.017794 3.723970 1.218924 -2.202719 -1.956698 -0.610912 8.249613 0.851944 0.237561 8.977390 2.215426 -88.966235 -5.462330 10.201450 -1.267318 1.736281 -0.525616 -1.523657 -6.943013 9.945667 1.775411 -4.167921 1.581894 -0.393547 -29.883065 -3.696700 1.549631 -0.005307 0.023809 -0.036342 -14.702978 11.432867 -4.845198 -18.122178 3.289962 0.396312 -24.271197 -3.104008 4.629220 -0.001052 0.004714 -0.012439
-107.797907 89.160419 33.158317 32.355351 -8.179792 -0.626289 -3.212028 2.628911 -0.723009 -1.836788 1.504033 -0.414817 -2.297880 1.877900 -0.526086 -1.836788 1.504033 -0.414817 -2.084666 19.555564 -1.834740 -3.243867 0.506719 -2.710902 8.056220 1.009427 -1.236638 3.219444 -0.520077 89.801748 4.043543 3.718397 1.213634 -2.201021 -1.962261 -0.610005 8.271202 0.856943 0.224467 8.973448 2.206428 -88.961264 -5.452849 10.182641 -1.252837 1.740180 -0.526450 -1.523942 -6.946412 9.911621 1.776027 -4.185543 1.620165 -0.396175 -29.903788 -3.698622 1.576150 -0.006967 0.022595 -0.038495 -14.695493 11.414236 -4.829809 -18.131330 3.293913 0.387869 -24.319782 -3.099811 4.633066 -0.003471 0.006995 -0.013220
-107.791066 89.161048 33.142301 32.371165 -8.176754 -0.638178 -3.225662 2.636802 -0.720529 -1.844533 1.507379 -0.411752 -2.307555 1.882088 -0.522304 -1.844533 1.507379 -0.411752 -2.067442 19.570745 -1.838535 -3.211376 0.534939 -2.723310 8.066616 1.022516 -1.238107 3.204931 -0.551325 89.797319 4.074529 3.714327 1.207353 -2.201907 -1.969429 -0.610169 8.300334 0.857055 0.209849 8.969431 2.201514 -88.958995 -5.439991 10.163139 -1.238926 1.745910 -0.528938 -1.520581 -6.952812 9.874157 1.782526 -4.204546 1.668113 -0.400297 -29.948731 -3.703164 1.602880 -0.011172 0.020367 -0.041179 -14.688067 11.398508 -4.812202 -18.144135 3.299747 0.377997 -24.369116 -3.097733 4.636241 -0.005844 0.009766 -0.013439
-107.784400 89.161544 33.125774 32.385036 -8.174037 -0.652355 -3.240784 2.645831 -0.715293 -1.852934 1.511845 -0.408121 -2.318048 1.887679 -0.517822 -1.852934 1.511845 -0.408121 -2.050316 19.582080 -1.843404 -3.178709 0.556012 -2.737591 8.083312 1.035488 -1.244809 3.190623 -0.585630 89.794284 4.109500 3.707624 1.199305 -2.206686 -1.972574 -0.608773 8.332016 0.854411 0.194177 8.969170 2.196531 -88.957893 -5.423272 10.145801 -1.225891 1.752819 -0.533533 -1.516037 -6.965389 9.837495 1.785209 -4.219478 1.721046 -0.404597 -29.960506 -3.708635 1.632552 -0.013890 0.017334 -0.042198 -14.681154 11.384524 -4.794758 -18.158383 3.307462 0.366728 -24.395955 -3.098967 4.642929 -0.006546 0.012363 -0.014108
-107.778011 89.161803 33.108436 32.394612 -8.169633 -0.669180 -3.253544 2.653407 -0.706798 -1.860187 1.517296 -0.404551 -2.327108 1.894502 -0.513417 -1.860187 1.517296 -0.404551 -2.035098 19.590168 -1.848509 -3.149431 0.571051 -2.751673 8.103647 1.047777 -1.253095 3.173059 -0.622214 89.791191 4.146222 3.699657 1.190878 -2.210182 -1.971741 -0.606323 8.358549 0.852342 0.179640 8.971221 2.189793 -88.958093 -5.405488 10.128848 -1.212887 1.761378 -0.536406 -1.513637 -6.984179 9.804684 1.777172 -4.229651 1.777003 -0.407151 -29.898874 -3.714885 1.666993 -0.011510 0.013755 -0.039968 -14.675042 11.374254 -4.780705 -18.169726 3.315832 0.354330 -24.376774 -3.103511 4.655061 -0.004162 0.013458 -0.013620
